PathFileType	4	(X/Y/Z)	c:/Users/goper/Files/vsCode/490R/osim_files/C15/C15_SSWS_01.trc
DataRate	CameraRate	NumFrames	NumMarkers	Units                	OrigDataRate	OrigDataStartFrame	OrigNumFrames
250.00	250.00	4	36	mm	250.0	2047	2729
                Frame#	Time	LPSIS			LASIS			LTH1			LTH2			LTH3			LTH4			LLFE			LMFE			LSH1			LSH2			LSH3			LSH4			LLMAL			LMMAL			LCAL			LMTP5			LTOE			LMTP1			RPSIS			RASIS			RTH1			RTH2			RTH3			RTH4			RLFE			RMFE			RSH1			RSH2			RSH3			RSH4			RLMAL			RMMAL			RCAL			RMTP1			RTOE			RMTP5		
		X1	Y1	Z1	X2	Y2	Z2	X3	Y3	Z3	X4	Y4	Z4	X5	Y5	Z5	X6	Y6	Z6	X7	Y7	Z7	X8	Y8	Z8	X9	Y9	Z9	X10	Y10	Z10	X11	Y11	Z11	X12	Y12	Z12	X13	Y13	Z13	X14	Y14	Z14	X15	Y15	Z15	X16	Y16	Z16	X17	Y17	Z17	X18	Y18	Z18	X19	Y19	Z19	X20	Y20	Z20	X21	Y21	Z21	X22	Y22	Z22	X23	Y23	Z23	X24	Y24	Z24	X25	Y25	Z25	X26	Y26	Z26	X27	Y27	Z27	X28	Y28	Z28	X29	Y29	Z29	X30	Y30	Z30	X31	Y31	Z31	X32	Y32	Z32	X33	Y33	Z33	X34	Y34	Z34	X35	Y35	Z35	X36	Y36	Z36

2047	8.18400	-2582.65112	1033.53247	297.33041	-2749.85254	1013.45135	356.85678	-2684.21069	619.96967	406.42307	-2684.86792	575.42218	390.01633	-2735.55347	629.37610	398.69434	-2736.89575	584.97461	387.43799	-2698.82349	498.51523	364.62012	-2691.73950	489.28979	244.11600	-2631.50928	394.55084	381.16946	-2624.67505	349.07629	380.38416	-2690.55664	383.15833	372.70554	-2677.62158	339.55109	375.33463	-2608.08472	91.77220	308.46619	-2625.11987	120.52831	220.22517	0.00000	0.00000	0.00000	-2728.33618	47.38938	324.23395	-2782.45752	68.11802	259.04984	-2741.84473	42.81817	203.03918	-2578.47949	1030.92297	177.13313	-2732.23657	1011.52051	108.10271	-2788.97046	657.30219	39.41601	0.00000	0.00000	0.00000	-2849.71411	680.08569	43.44457	-2861.61255	633.69843	44.95081	-2848.97339	531.62213	66.00591	-2851.44360	513.82050	187.28932	-2737.17163	484.28134	61.48378	-2714.07007	447.87448	57.82336	-2782.21606	441.62750	54.18860	-2753.29541	415.65060	47.11217	-2582.93970	212.94336	116.82402	-2636.36768	211.11765	193.40117	-2529.65186	227.88960	169.10437	-2683.97363	90.67868	180.57256	-2715.96143	89.58823	122.07360	-2639.19312	100.11726	71.75904
2048	8.18800	-2586.63745	1033.21924	296.90289	-2753.52661	1013.49298	357.09473	-2687.44141	620.64758	407.08319	-2686.55835	575.44745	389.99762	-2736.34131	628.60046	397.80988	-2738.52026	584.72321	387.21622	-2700.19678	498.36014	364.52063	-2693.00708	489.14935	244.11545	-2632.76733	394.63345	381.15543	-2625.56543	349.10660	380.33090	-2691.57275	383.04816	372.54095	-2678.57983	339.38342	375.16641	-2608.18408	91.82101	308.41492	-2625.63452	120.77029	220.31013	0.00000	0.00000	0.00000	-2728.35474	47.35005	324.27930	-2782.48364	68.03847	259.07672	-2741.87524	42.78782	203.04108	0.00000	0.00000	0.00000	-2736.00000	1011.68439	108.13741	-2794.07690	658.00684	39.36579	-2812.80322	615.23029	45.98568	-2854.65356	681.04333	43.60557	-2866.88989	634.78668	45.13590	-2854.54443	532.58978	66.28709	-2856.89966	514.51776	187.36125	-2742.76758	483.59109	61.49975	-2720.63770	446.59763	57.90133	-2788.81445	441.60480	54.26538	-2760.50635	415.13126	46.90847	-2593.94922	208.87694	116.10036	-2648.58911	208.52768	192.83502	-2540.21655	222.25284	168.37556	-2698.03027	88.80252	179.43489	-2730.12842	88.74009	120.95887	-2653.04907	97.47768	70.34618
2049	8.19200	-2589.80054	1033.10278	296.60159	-2756.66138	1013.41705	357.17596	-2687.95483	620.15399	405.59778	-2688.32178	575.38513	389.89432	-2739.38354	628.97943	398.30655	-2739.56567	584.15637	386.56772	-2701.13379	497.99457	364.36221	-2694.20923	489.04404	244.02055	-2633.68848	394.56583	381.06085	-2626.61377	349.07620	380.33844	-2692.66333	382.94794	372.48941	-2679.45215	339.29230	375.06757	-2608.30835	91.92576	308.37253	-2626.30664	121.32159	220.48213	0.00000	0.00000	0.00000	-2728.36206	47.33832	324.30362	-2782.53149	68.00745	259.11896	-2741.87598	42.78485	203.05696	0.00000	0.00000	0.00000	-2739.66455	1011.76880	108.13692	-2801.48511	661.99377	35.23674	0.00000	0.00000	0.00000	-2859.62012	682.02515	43.77045	-2872.01294	635.78094	45.30505	-2860.06274	533.50916	66.58956	-2862.39722	515.27612	187.47925	-2748.90063	482.44592	61.81623	-2727.16870	445.31546	57.82493	-2795.44556	441.61404	54.24225	-2767.64331	414.53836	46.76550	-2605.10327	204.66592	115.45133	-2659.78271	205.27850	192.05637	-2550.99243	216.62105	167.58072	-2711.44482	86.00900	178.84776	-2744.13916	87.85006	119.84496	-2667.65283	95.72617	69.67372
2050	8.19600	-2592.27173	1033.22644	296.57153	-2759.43457	1013.12518	357.11810	-2691.28442	620.64093	406.85593	-2690.03809	575.42773	389.78079	-2741.35864	628.78723	398.11487	-2741.39526	583.94257	386.38745	-2702.89697	498.02356	364.42850	-2695.44971	488.92856	243.91168	-2634.87695	394.64499	381.11624	-2627.65112	349.12195	380.34924	-2693.70239	382.80032	372.33054	-2680.45850	339.20361	374.98526	-2608.21582	91.92135	308.25632	-2626.39697	121.38310	220.42337	0.00000	0.00000	0.00000	-2728.31030	47.27793	324.32266	-2782.56860	68.00809	259.12289	-2741.05591	41.91095	202.69746	-2589.21094	1030.18408	176.48106	-2743.45337	1011.93536	108.26125	-2806.49854	662.62671	35.21273	0.00000	0.00000	0.00000	-2864.43188	682.89526	43.91882	-2877.07324	636.72217	45.54004	-2865.48120	534.38916	66.93949	-2867.96021	516.09393	187.68871	-2754.72998	481.55490	62.75636	-2733.81274	443.62238	57.96213	-2801.91821	441.52023	54.19661	-2774.71997	413.81656	46.66419	-2616.33765	200.43315	114.61365	-2671.12695	201.94826	191.28860	-2561.72485	210.85756	166.78958	-2724.55029	83.24560	177.14522	-2758.25244	86.93210	118.69216	-2680.98169	92.45405	68.14672
